<svg width="74" height="63" viewBox="0 0 74 63" fill="none" xmlns="http://www.w3.org/2000/svg">
<path d="M67.693 1.76605e-06H13.0581C12.0894 -2.7547e-05 11.137 0.25084 10.2936 0.728224C9.45023 1.20561 8.74438 1.8933 8.24462 2.72454C7.74486 3.55578 7.46816 4.50233 7.44139 5.47228C7.41462 6.44224 7.63869 7.40264 8.09184 8.26026L13.5561 18.6253H3.64836C3.0194 18.6243 2.40091 18.7865 1.85309 19.096C1.30528 19.4055 0.846808 19.8518 0.522298 20.3914C0.197789 20.9311 0.0183217 21.5457 0.00132991 22.1755C-0.0156619 22.8052 0.130418 23.4286 0.425353 23.985L18.0038 57.3085C18.3135 57.8948 18.777 58.3855 19.3443 58.7277C19.9116 59.0699 20.5614 59.2508 21.2237 59.2508C21.886 59.2508 22.5357 59.0699 23.1031 58.7277C23.6704 58.3855 24.1339 57.8948 24.4436 57.3085L29.2185 48.3061L35.2076 59.6627C35.6845 60.5675 36.3987 61.325 37.2732 61.8539C38.1477 62.3827 39.1496 62.6628 40.1712 62.6641C41.1927 62.6653 42.1953 62.3877 43.0711 61.8611C43.947 61.3345 44.663 60.5787 45.1421 59.675L72.5275 8.05823C72.9718 7.22268 73.1925 6.28612 73.1681 5.33976C73.1437 4.3934 72.875 3.46951 72.3881 2.65807C71.9013 1.84663 71.213 1.17532 70.3902 0.709508C69.5674 0.243691 68.6381 -0.000758084 67.693 1.76605e-06ZM43.152 22.0576L31.3445 44.3213C31.1383 44.7113 30.8299 45.0376 30.4524 45.2652C30.0749 45.4928 29.6426 45.6131 29.202 45.6131C28.7614 45.6131 28.3291 45.4928 27.9516 45.2652C27.5741 45.0376 27.2657 44.7113 27.0595 44.3213L15.3653 22.1545C15.1695 21.7848 15.0724 21.3708 15.0834 20.9525C15.0945 20.5343 15.2132 20.1259 15.4281 19.7672C15.643 19.4084 15.9468 19.1113 16.3101 18.9047C16.6734 18.6981 17.0838 18.5891 17.5016 18.5881H41.0712C41.4783 18.5881 41.8784 18.6936 42.2327 18.8943C42.587 19.0951 42.8834 19.3842 43.0931 19.7337C43.3028 20.0832 43.4186 20.481 43.4293 20.8886C43.4399 21.2962 43.3451 21.6996 43.154 22.0597L43.152 22.0576Z" fill="#F71963"/>
</svg>
